<?xml version="1.0" ?>
<!DOCTYPE svg  PUBLIC '-//W3C//DTD SVG 1.1//EN'  'http://www.w3.org/Graphics/SVG/1.1/DTD/svg11.dtd'>
<!-- Uploaded to: SVG Repo, www.svgrepo.com, Generator: SVG Repo Mixer Tools -->
<svg fill="#000000" width="800px" height="800px" viewBox="0 0 512 512" version="1.1" xml:space="preserve" xmlns="http://www.w3.org/2000/svg" xmlns:xlink="http://www.w3.org/1999/xlink">
<g id="_x35_09_x2C__card_x2C__component_x2C__custom_x2C__electronic_x2C__memory">
<g>
<path d="M367.693,106.561H81.027v22.544h286.667V106.561z M77.574,99.654h293.573    c1.909,0,3.453,1.572,3.453,3.453v29.422c0,1.91-1.544,3.453-3.453,3.453H77.574c-1.909,0-3.454-1.543-3.454-3.453v-29.422    C74.12,101.227,75.665,99.654,77.574,99.654z M457.026,359.763c-1.938-1.909-4.577-3.116-7.524-3.116    c-2.92,0-5.586,1.207-7.495,3.116c-1.937,1.909-3.116,4.577-3.116,7.523c0,2.92,1.18,5.587,3.116,7.497    c1.909,1.937,4.575,3.115,7.495,3.115c2.947,0,5.615-1.179,7.524-3.115c1.909-1.91,3.116-4.577,3.116-7.497    C460.143,364.34,458.936,361.672,457.026,359.763z M449.502,349.74c4.856,0,9.236,1.965,12.409,5.137    c3.145,3.174,5.11,7.553,5.11,12.409c0,4.829-1.938,9.209-5.11,12.381c-3.173,3.173-7.553,5.138-12.409,5.138    c-4.829,0-9.207-1.965-12.38-5.138c-3.173-3.172-5.138-7.552-5.138-12.381c0-4.856,1.965-9.235,5.138-12.409    C440.295,351.705,444.673,349.74,449.502,349.74z M434.623,144.854c-1.909-1.908-4.576-3.115-7.496-3.115    c-2.948,0-5.587,1.207-7.524,3.115c-1.909,1.91-3.116,4.577-3.116,7.523c0,2.92,1.207,5.588,3.116,7.497    c1.938,1.937,4.576,3.116,7.524,3.116c2.92,0,5.587-1.18,7.496-3.116c1.938-1.909,3.116-4.577,3.116-7.497    C437.739,149.431,436.561,146.764,434.623,144.854z M427.127,134.832c4.829,0,9.209,1.965,12.381,5.137    c3.173,3.173,5.137,7.553,5.137,12.408c0,4.83-1.964,9.209-5.137,12.381c-3.172,3.173-7.552,5.139-12.381,5.139    c-4.857,0-9.237-1.966-12.408-5.139c-3.145-3.172-5.109-7.551-5.109-12.381c0-4.855,1.965-9.235,5.109-12.408    C417.89,136.797,422.27,134.832,427.127,134.832z M150.006,354.652c-1.909-1.937-4.576-3.115-7.496-3.115    c-2.948,0-5.615,1.179-7.524,3.115c-1.909,1.91-3.116,4.577-3.116,7.497c0,2.946,1.207,5.614,3.116,7.523s4.577,3.116,7.524,3.116    c2.92,0,5.587-1.207,7.496-3.116s3.117-4.577,3.117-7.523C153.123,359.229,151.915,356.563,150.006,354.652z M142.51,344.631    c4.829,0,9.209,1.965,12.381,5.138c3.171,3.172,5.136,7.552,5.136,12.381c0,4.856-1.965,9.235-5.136,12.409    c-3.172,3.172-7.552,5.137-12.381,5.137c-4.857,0-9.237-1.965-12.41-5.137c-3.171-3.174-5.136-7.553-5.136-12.409    c0-4.829,1.965-9.209,5.136-12.381C133.273,346.596,137.653,344.631,142.51,344.631z M379.879,374.053    c0-1.909,1.572-3.453,3.453-3.453c1.908,0,3.453,1.544,3.453,3.453v22.375h99.214v-74.257h-68.334l-55.39,31.977    c-0.563,0.394-1.264,0.646-1.994,0.646H202.926c-1.881,0-3.425-1.544-3.425-3.453c0-1.908,1.544-3.452,3.425-3.452h156.457    l55.701-32.146c0.533-0.309,1.121-0.449,1.711-0.449l69.204-0.028V247.27H316.795c-0.898,0-1.769-0.338-2.442-1.012    l-37.115-37.086c-1.348-1.348-1.348-3.537,0-4.885s3.538-1.348,4.886,0l36.104,36.104h167.772v-40.82h-63.168    c-0.59-0.027-1.151-0.168-1.713-0.477l-69.398-40.063H146.637c-1.881,0-3.453-1.544-3.453-3.453s1.572-3.453,3.453-3.453h205.981    c0.729,0,1.433,0.225,1.993,0.646l69.118,39.894h62.27v-31.836l-74.733-74.733h-4.998H52.868v89.697h170.551    c1.881,0,3.454,1.544,3.454,3.452c0,1.881-1.572,3.453-3.454,3.453H52.868v18.67h64.993c0.898,0,1.769,0.338,2.442,1.012    l38.012,38.012h82.989c1.909,0,3.451,1.544,3.451,3.453s-1.542,3.453-3.451,3.453h-84.419c-0.955,0-1.825-0.393-2.443-1.01    l-38.013-38.014H52.868v92.87H214.94l30.966-30.966c1.348-1.348,3.538-1.348,4.885,0s1.348,3.537,0,4.885l-31.977,31.977    c-0.674,0.674-1.572,1.01-2.442,1.01H52.868v18.053h190.849l51.434-51.46c0.646-0.618,1.487-1.011,2.442-1.011h127.934    c1.909,0,3.453,1.572,3.453,3.453c0,1.908-1.544,3.453-3.453,3.453H299.024l-51.433,51.432c-0.674,0.674-1.544,1.012-2.443,1.012    H56.49l63.42,63.447h48.905v-22.375c0-1.909,1.544-3.453,3.425-3.453c1.909,0,3.453,1.544,3.453,3.453v22.375h28.299v-22.375    c0-1.909,1.544-3.453,3.454-3.453c1.881,0,3.453,1.544,3.453,3.453v22.375h28.271v-22.375c0-1.909,1.544-3.453,3.453-3.453    c1.907,0,3.452,1.544,3.452,3.453v22.375h28.271v-22.375c0-1.909,1.544-3.453,3.453-3.453s3.453,1.544,3.453,3.453v22.375h28.271    v-22.375c0-1.909,1.544-3.453,3.453-3.453s3.453,1.544,3.453,3.453v22.375h28.271v-22.375c0-1.909,1.544-3.453,3.453-3.453    s3.453,1.544,3.453,3.453v22.375h28.271V374.053z M57.782,428.32c-1.909,0-3.454-1.572-3.454-3.454    c0-1.909,1.544-3.452,3.454-3.452h295.623c1.909,0,3.453,1.543,3.453,3.452c0,1.882-1.544,3.454-3.453,3.454H57.782z     M230.888,446.288c-1.909,0-3.453-1.545-3.453-3.454c0-1.881,1.544-3.453,3.453-3.453h204.577c1.91,0,3.454,1.572,3.454,3.453    c0,1.909-1.544,3.454-3.454,3.454H230.888z M456.408,446.288c-1.909,0-3.453-1.545-3.453-3.454c0-1.881,1.544-3.453,3.453-3.453    h25.575c1.909,0,3.454,1.572,3.454,3.453c0,1.909-1.545,3.454-3.454,3.454H456.408z M46.13,445.754    c-1.909,0-3.453-1.544-3.453-3.453s1.544-3.453,3.453-3.453h96.941c1.909,0,3.453,1.544,3.453,3.453s-1.544,3.453-3.453,3.453    H46.13z M49.415,79.188h348.431l-13.447-13.475H26.001v243.039l19.96,15.131v-19.201v-0.085v-0.084v-99.607v-0.169v-25.408v-0.084    v-0.084v-96.52C45.962,80.732,47.506,79.188,49.415,79.188z" style="fill-rule:evenodd;clip-rule:evenodd;"/>
</g>
</g>
<g id="Layer_1"/>
</svg>